<?xml version="1.0" encoding="UTF-8" standalone="no"?> <svg width="512" height="512" viewBox="0 0 512 512" fill="none" xmlns="http://www.w3.org/2000/svg">
<path fill-rule="evenodd" clip-rule="evenodd" d="M149.65 151.185C149.65 95.4464 197.989 39.9981 256.395 39.9981C314.963 39.9981 363.123 91.6463 363.123 151.185C363.123 159.033 362.724 166.456 361.764 173.509C358.548 197.142 362.285 223.634 374.331 244.873C376.005 247.825 377.649 250.908 379.306 254.148C396.269 287.318 403.618 327.623 398.217 364.552C392.832 401.369 374.893 434.355 341.684 454.202C275.329 493.856 187.689 466.779 133.256 373.603C106.334 327.52 102.986 258.474 134.814 209.783C145.266 193.793 150.434 174.548 149.731 155.551C149.677 154.103 149.65 152.647 149.65 151.185ZM256.395 24C188.067 24 133.652 87.7375 133.652 151.185C133.652 152.845 133.683 154.498 133.744 156.143C134.328 171.924 130.013 187.888 121.423 201.029C85.8368 255.47 89.8914 331.089 119.442 381.673C176.784 479.829 273.461 513.609 349.891 467.934C388.063 445.122 408.119 407.388 414.046 366.868C419.957 326.46 411.935 282.814 393.55 246.864C391.815 243.473 390.061 240.179 388.247 236.981C378.199 219.264 374.793 196.41 377.616 175.666C378.696 167.727 379.121 159.559 379.121 151.185C379.121 83.5919 324.56 24 256.395 24ZM201.849 99.7082C215.938 82.4328 235.288 71.9943 255.979 71.9943C264.582 71.9943 272.953 73.7989 280.811 77.1492L201.849 99.7082ZM189.311 119.874C184.706 129.812 181.506 140.938 180.095 152.9L219.543 142.4C221.366 137.158 223.846 132.35 226.887 128.169C233.769 118.707 243.956 111.989 255.981 111.989C266.918 111.989 276.335 117.547 283.127 125.672C283.636 125.409 284.181 125.196 284.757 125.042L320.504 115.528C314.897 104.818 307.604 95.6592 299.162 88.5453L190.218 119.67C189.916 119.757 189.614 119.824 189.311 119.874ZM168.055 210.591C174.609 198.054 178.746 184.01 179.234 169.684L216.108 159.869C216.027 161.229 215.986 162.601 215.986 163.983C215.986 175.735 218.958 186.769 224.176 195.653L168.055 210.591ZM156.524 230.215C150.305 242.459 146.322 256.406 144.754 271.282L331.372 221.611C329.076 209.968 329.083 197.897 331.038 186.406C331.193 185.492 331.338 184.574 331.472 183.65L288.043 195.209C287.124 196.809 286.134 198.341 285.075 199.797C278.193 209.259 268.006 215.977 255.981 215.977C248.466 215.977 241.668 213.353 235.947 209.075L156.524 230.215ZM149.056 324.613C145.844 312.272 144.19 299.961 144.011 288.035L335.898 236.962C337.63 241.276 339.739 245.457 342.244 249.443C343.747 251.836 345.204 254.285 346.61 256.79C349.103 261.229 351.369 265.711 353.413 270.221L149.056 324.613ZM153.839 339.895C156.924 348.308 160.754 356.666 165.353 364.856C166.998 367.785 168.707 370.636 170.477 373.406L367.266 321.028C366.088 309.236 363.482 297.187 359.365 285.191L153.839 339.895ZM211.513 417.083C200.306 409.121 189.76 399.156 180.387 387.323L367.991 337.39C367.82 351.425 365.573 364.856 361.402 377.112C361.156 377.153 360.91 377.207 360.664 377.272L212.764 416.638C212.328 416.754 211.91 416.903 211.513 417.083ZM230.63 428.437C261.468 443.377 294.884 444.091 321.668 428.189C334.742 420.426 345.273 409.292 352.972 395.874L230.63 428.437ZM294.752 176.869L332.676 166.775C332.669 153.761 330.58 141.504 326.838 130.397L291.452 139.815C294.372 147.106 295.976 155.351 295.976 163.983C295.976 168.405 295.555 172.726 294.752 176.869ZM255.979 55.9962C203.402 55.9962 163.284 107.146 163.284 166.84C163.284 182.344 157.876 198.081 149.014 211.392C120.627 254.028 120.58 317.801 151.404 372.689C191.227 443.605 270.64 477.091 329.836 441.945C388.803 406.934 400.372 319.853 360.559 248.956C359.024 246.223 357.433 243.548 355.79 240.932C346.455 226.077 343.743 207.121 346.809 189.088C348.033 181.894 348.674 174.453 348.674 166.84C348.674 107.146 308.556 55.9962 255.979 55.9962ZM239.825 137.579C235.132 144.032 231.984 153.341 231.984 163.983C231.984 174.625 235.132 183.934 239.825 190.387C244.524 196.848 250.335 199.979 255.981 199.979C261.627 199.979 267.438 196.848 272.136 190.387C276.83 183.934 279.978 174.625 279.978 163.983C279.978 153.341 276.83 144.032 272.136 137.579C267.438 131.118 261.627 127.988 255.981 127.988C250.335 127.988 244.524 131.118 239.825 137.579Z" fill="black"/>
</svg>
